<?xml version="1.0" encoding="UTF-8"?>
<svg version="1.1" xmlns="http://www.w3.org/2000/svg" width="736" height="884">
<path d="M0 0 C0.845625 0.72445313 1.69125 1.44890625 2.5625 2.1953125 C15.26449598 13.34736254 15.26449598 13.34736254 16.953125 19.4375 C17 23 17 23 15.04296875 25.3359375 C14.10066406 26.00882812 13.15835937 26.68171875 12.1875 27.375 C11.17429687 28.138125 10.16109375 28.90125 9.1171875 29.6875 C8.08851563 30.450625 7.05984375 31.21375 6 32 C-12.00077007 46.69450618 -24.1522473 68.11451926 -26.625 91.25 C-28.45851834 115.49318691 -24.27407972 139.33515246 -8.25 158.375 C-5.61192978 161.36919362 -2.84059472 164.19761956 0 167 C0.66644531 167.66515625 1.33289063 168.3303125 2.01953125 169.015625 C6.79950188 173.48363965 12.25212318 176.77698847 17.8515625 180.10546875 C26.79154138 185.48498457 26.79154138 185.48498457 28.0625 188.625 C27.87451418 198.77623408 22.43573734 208.09552421 18 217 C17.59185059 217.82032715 17.18370117 218.6406543 16.76318359 219.48583984 C10.88980741 231.19548801 4.60390218 242.32995606 -3 253 C-3.69996094 253.99386719 -4.39992188 254.98773437 -5.12109375 256.01171875 C-7.04613421 258.70227237 -9.01114613 261.35637942 -11 264 C-11.56460937 264.77085937 -12.12921875 265.54171875 -12.7109375 266.3359375 C-25.28826411 282.86770741 -40.22494366 297.32524938 -61 302 C-79.05714971 303.25024775 -93.11237167 298.99284308 -109.49414062 291.76757812 C-127.86376694 283.66845901 -150.87742247 283.48692167 -169.625 290.6875 C-171.66227399 291.49144102 -173.69620827 292.30345548 -175.72998047 293.11621094 C-180.0124599 294.7835131 -184.35072312 296.29340524 -188.6875 297.8125 C-189.53715332 298.11438232 -190.38680664 298.41626465 -191.26220703 298.72729492 C-204.59160009 303.4023305 -217.85686401 303.67353763 -231 298 C-239.00399698 293.84179969 -245.52010458 288.20717255 -252 282 C-252.64195312 281.42121094 -253.28390625 280.84242188 -253.9453125 280.24609375 C-261.28074611 273.3863891 -267.08655805 265.07288508 -273 257 C-273.48404297 256.33935547 -273.96808594 255.67871094 -274.46679688 254.99804688 C-305.43183976 212.30711118 -324.20779794 159.6749589 -324.25 106.75 C-324.25067474 105.99155792 -324.25134949 105.23311584 -324.25204468 104.45169067 C-324.23505155 92.41595162 -323.696727 80.77588802 -321 69 C-320.8443457 68.2977832 -320.68869141 67.59556641 -320.52832031 66.87207031 C-313.36664816 35.92392617 -294.29778778 8.94734633 -267.6875 -8.25 C-253.82514899 -16.44514434 -237.16989284 -22.40494794 -221 -23 C-220.08089844 -23.03996094 -219.16179687 -23.07992188 -218.21484375 -23.12109375 C-198.49600444 -23.56275418 -180.58709864 -17.04689356 -162.5625 -9.625 C-145.27825216 -2.56902785 -132.62497666 -6.63498192 -115.74609375 -12.96875 C-76.74334743 -27.54263259 -33.58730007 -28.90906899 0 0 Z " fill="#FDFDFD" transform="translate(511,339)"/>
<path d="M0 0 C2.77000893 2.08363503 3.86550227 3.26608721 4.49609375 6.70703125 C4.01477691 32.21682398 -5.78741495 56.80234387 -23.125 75.5625 C-39.12025139 90.63636594 -59.45186556 101.25406044 -81.765625 101.53125 C-84.88139441 100.79043769 -86.08118672 99.53248779 -88 97 C-91.85237461 79.72096683 -81.69834309 58.02431478 -72.75 43.75 C-58.40233552 21.87235558 -28.12539959 -2.81253996 0 0 Z " fill="#F9F8F8" transform="translate(449,214)"/>
<path d="M0 0 C0.93423645 3.01031744 1.04449911 3.86650268 0 7 C-0.06665376 8.39439664 -0.08538199 9.79169875 -0.0625 11.1875 C-0.041875 12.445625 -0.02125 13.70375 0 15 C-0.99 15.33 -1.98 15.66 -3 16 C-6.03443318 36.39096055 -7.99311163 57.47580597 -5 78 C-4.67 78.33 -4.34 78.66 -4 79 C-3.92728259 81.35313555 -3.91629132 83.70833668 -3.9375 86.0625 C-3.94652344 87.35285156 -3.95554688 88.64320313 -3.96484375 89.97265625 C-3.97644531 90.97167969 -3.98804688 91.97070312 -4 93 C-4.33 93 -4.66 93 -5 93 C-10.64938279 61.8611401 -9.88037744 30.14881971 0 0 Z " fill="#7D7878" transform="translate(195,391)"/>
<path d="M0 0 C0.33 0 0.66 0 1 0 C1 7.59 1 15.18 1 23 C5.1146875 23.061875 5.1146875 23.061875 9.3125 23.125 C10.17270752 23.14320801 11.03291504 23.16141602 11.91918945 23.18017578 C12.94338989 23.18766846 12.94338989 23.18766846 13.98828125 23.1953125 C15.03302612 23.21102295 15.03302612 23.21102295 16.09887695 23.22705078 C18.331173 23.10574595 18.331173 23.10574595 21 21 C23.6875 21.375 23.6875 21.375 26 22 C19.61108786 26.25927476 9.50507435 27.41469453 2 26 C-0.82281605 23.94529716 -1.86145786 22.80072659 -2.4609375 19.3359375 C-2.2681864 12.69478589 -1.5997781 6.45624732 0 0 Z " fill="#787775" transform="translate(363,289)"/>
<path d="M0 0 C0 0.33 0 0.66 0 1 C-2.31 1.33 -4.62 1.66 -7 2 C-7 1.34 -7 0.68 -7 0 C-8.04389893 -0.19952271 -8.04389893 -0.19952271 -9.10888672 -0.40307617 C-11.06794048 -0.80755907 -13.01810169 -1.25725683 -14.95751953 -1.74731445 C-24.41504901 -4.04978002 -33.19693918 -4.36248427 -42.875 -4.1875 C-44.35285068 -4.17240001 -45.83071659 -4.15872116 -47.30859375 -4.14648438 C-50.8727208 -4.11395892 -54.43625696 -4.06248246 -58 -4 C-58 -4.33 -58 -4.66 -58 -5 C-37.65923408 -8.3125608 -19.67345418 -5.75745444 0 0 Z " fill="#686868" transform="translate(482,322)"/>
<path d="M0 0 C0.99 0 1.98 0 3 0 C3.0578304 4.45827926 3.09353855 8.9164628 3.125 13.375 C3.14175781 14.64601563 3.15851563 15.91703125 3.17578125 17.2265625 C3.18222656 18.43828125 3.18867188 19.65 3.1953125 20.8984375 C3.20578613 22.01911621 3.21625977 23.13979492 3.22705078 24.29443359 C3 27 3 27 1 29 C0 28 0 28 -0.11352539 25.31616211 C-0.10828857 24.14835205 -0.10305176 22.98054199 -0.09765625 21.77734375 C-0.09443359 20.51728516 -0.09121094 19.25722656 -0.08789062 17.95898438 C-0.07953403 16.61848891 -0.07106907 15.27799412 -0.0625 13.9375 C-0.0574866 12.59310058 -0.05292342 11.2486994 -0.04882812 9.90429688 C-0.03699488 6.60282059 -0.02050971 3.30143197 0 0 Z " fill="#F1EEEC" transform="translate(188,432)"/>
<path d="M0 0 C0.33 0.66 0.66 1.32 1 2 C0.360625 2.639375 -0.27875 3.27875 -0.9375 3.9375 C-1.60845703 4.61425781 -1.60845703 4.61425781 -2.29296875 5.3046875 C-3.61404667 6.61669623 -4.95371722 7.90999843 -6.30078125 9.1953125 C-7.10902344 9.97648438 -7.91726563 10.75765625 -8.75 11.5625 C-9.52859375 12.30628906 -10.3071875 13.05007812 -11.109375 13.81640625 C-12.98654084 15.98445523 -13.61929757 17.20183711 -14 20 C-14.66 19.34 -15.32 18.68 -16 18 C-17.65 19.32 -19.3 20.64 -21 22 C-17.3858013 13.72538718 -8.14088821 4.07044411 0 0 Z " fill="#B2B2B2" transform="translate(401,232)"/>
<path d="M0 0 C0.66 0 1.32 0 2 0 C2.12117187 0.69867188 2.24234375 1.39734375 2.3671875 2.1171875 C2.53476563 3.02726562 2.70234375 3.93734375 2.875 4.875 C3.03742188 5.77992188 3.19984375 6.68484375 3.3671875 7.6171875 C3.83044703 10.16505988 3.83044703 10.16505988 6 12 C6.1953125 15.2578125 6.1953125 15.2578125 6.125 19.125 C6.10695312 20.40632813 6.08890625 21.68765625 6.0703125 23.0078125 C6.04710937 23.99523437 6.02390625 24.98265625 6 26 C4.20295888 23.30443832 3.60381795 21.97717099 2.9296875 18.9453125 C2.75566406 18.16542969 2.58164063 17.38554687 2.40234375 16.58203125 C2.22832031 15.77121094 2.05429688 14.96039063 1.875 14.125 C1.60236328 12.92037109 1.60236328 12.92037109 1.32421875 11.69140625 C0.45721246 7.73446779 -0.24763664 4.07774995 0 0 Z " fill="#A5A1A1" transform="translate(191,484)"/>
<path d="M0 0 C0 4.46034635 -1.29237814 7.90170754 -3 12 C-4.32 12 -5.64 12 -7 12 C-7 12.99 -7 13.98 -7 15 C-7.66 15 -8.32 15 -9 15 C-9.33 16.65 -9.66 18.3 -10 20 C-10.66 20 -11.32 20 -12 20 C-10.60671838 14.98266347 -8.43892444 11.34587161 -5.4375 7.1875 C-5.02564453 6.60291016 -4.61378906 6.01832031 -4.18945312 5.41601562 C-1.21552579 1.21552579 -1.21552579 1.21552579 0 0 Z " fill="#B0AFAF" transform="translate(215,356)"/>
<path d="M0 0 C0.66 0.33 1.32 0.66 2 1 C-4.00079861 4.46483458 -10.13395594 6.8430563 -16.75 8.8125 C-17.47050537 9.03123779 -18.19101074 9.24997559 -18.93334961 9.4753418 C-23.06574945 10.66155106 -26.65621142 11.23904497 -31 11 C-31 10.67 -31 10.34 -31 10 C-30.1028125 9.78085937 -29.205625 9.56171875 -28.28125 9.3359375 C-20.3262865 7.31432488 -12.71672724 4.92953422 -5.10546875 1.84326172 C-3.42376101 1.1757492 -1.71351042 0.58103004 0 0 Z " fill="#707070" transform="translate(401,324)"/>
<path d="M0 0 C0.33 0.66 0.66 1.32 1 2 C-0.20296267 4.34354949 -1.44990095 6.5645574 -2.8125 8.8125 C-5.19738841 12.79563823 -7.41962031 16.61005641 -9 21 C-10.22735758 17.31792726 -9.27852787 16.21675409 -7.69921875 12.84375 C-6.70120354 10.21211214 -6.87064054 7.78122841 -7 5 C-6.67 4.34 -6.34 3.68 -6 3 C-4.68 3 -3.36 3 -2 3 C-1.34 2.01 -0.68 1.02 0 0 Z " fill="#B0B0B3" transform="translate(498,389)"/>
<path d="M0 0 C1.05503586 3.42886654 1.43753611 6.42678844 1 10 C-0.62339805 11.70884005 -2.29319053 13.37446717 -4 15 C-5.33563611 18.16701423 -5.33563611 18.16701423 -6 21 C-7.37238783 17.92395831 -6.89542683 16.68074018 -5.8203125 13.3984375 C-5.26659182 12.05255182 -4.70106633 10.71147389 -4.125 9.375 C-3.84269531 8.694375 -3.56039063 8.01375 -3.26953125 7.3125 C-2.23972229 4.84291073 -1.19690838 2.39381676 0 0 Z " fill="#A8A8A6" transform="translate(371,267)"/>
<path d="M0 0 C0 0.66 0 1.32 0 2 C-0.66 2.66 -1.32 3.32 -2 4 C-2.53625 4.70125 -3.0725 5.4025 -3.625 6.125 C-7.12395433 8.88733236 -9.62126628 8.29191558 -14 8 C-10.67417683 4.11987297 -5.34770586 0 0 0 Z " fill="#BDBDBD" transform="translate(416,224)"/>
<path d="M0 0 C0.33 0.66 0.66 1.32 1 2 C-0.36412207 4.07043417 -1.74051527 6.13074144 -3.125 8.1875 C-3.50398438 8.76564453 -3.88296875 9.34378906 -4.2734375 9.93945312 C-7.06771259 14.06100889 -10.05184117 16.9616343 -14 20 C-14 18.68 -14 17.36 -14 16 C-12.34467377 14.98133771 -10.67739862 13.98189187 -9 13 C-8.64587656 11.67203709 -8.31478446 10.33783393 -8 9 C-6.37660195 7.29115995 -4.70680947 5.62553283 -3 4 C-1.97186389 2.68824014 -0.95915568 1.3630107 0 0 Z " fill="#7A7A7A" transform="translate(438,270)"/>
<path d="M0 0 C2.3125 -0.3125 2.3125 -0.3125 5 0 C8.0940533 3.64656282 8.54257146 7.33422887 9 12 C4.99027798 8.32442148 2.54664585 4.81033104 0 0 Z " fill="#AEABAC" transform="translate(239,596)"/>
<path d="M0 0 C3.52228173 2.68219729 4.21379266 6.34369599 5.25 10.4375 C5.435625 11.10587891 5.62125 11.77425781 5.8125 12.46289062 C6.75161198 16.05214816 7.0768121 18.46931744 6 22 C4.9929564 18.8980736 3.99559195 15.79311902 3 12.6875 C2.71382812 11.80642578 2.42765625 10.92535156 2.1328125 10.01757812 C1.86210937 9.17001953 1.59140625 8.32246094 1.3125 7.44921875 C1.06113281 6.66893311 0.80976563 5.88864746 0.55078125 5.0847168 C0 3 0 3 0 0 Z " fill="#8F8A8B" transform="translate(197,510)"/>
<path d="M0 0 C2.14015445 1.69428894 2.92592939 2.68725741 3.5625 5.375 C2.69821703 9.40832053 0.2801177 10.60824751 -3 13 C-3.66 12.67 -4.32 12.34 -5 12 C-5 11.01 -5 10.02 -5 9 C-4.0409375 8.7215625 -4.0409375 8.7215625 -3.0625 8.4375 C-0.57873787 7.05753944 -0.57873787 7.05753944 -0.25 3.375 C-0.1675 2.26125 -0.085 1.1475 0 0 Z " fill="#BABABB" transform="translate(525,354)"/>
<path d="M0 0 C0.8971875 0.5259375 0.8971875 0.5259375 1.8125 1.0625 C0.38390593 2.09575986 -1.05572383 3.11377634 -2.5 4.125 C-3.70076172 4.97771484 -3.70076172 4.97771484 -4.92578125 5.84765625 C-5.67214844 6.24855469 -6.41851562 6.64945313 -7.1875 7.0625 C-8.1775 6.7325 -9.1675 6.4025 -10.1875 6.0625 C-9.548125 5.629375 -8.90875 5.19625 -8.25 4.75 C-5.92003997 3.15010823 -5.92003997 3.15010823 -5.1875 0.0625 C-2.1875 -0.9375 -2.1875 -0.9375 0 0 Z " fill="#BBBBBD" transform="translate(472.1875,628.9375)"/>
<path d="M0 0 C1.125 3.75 1.125 3.75 0 6 C0.66 6 1.32 6 2 6 C2 6.66 2 7.32 2 8 C1.1028125 8.3403125 1.1028125 8.3403125 0.1875 8.6875 C-2.56351888 10.33811133 -3.52484637 12.1972081 -5 15 C-5.33 14.34 -5.66 13.68 -6 13 C-5.10333658 10.75689987 -4.10853317 8.55245679 -3.0625 6.375 C-2.49660156 5.18648438 -1.93070313 3.99796875 -1.34765625 2.7734375 C-0.90292969 1.85820312 -0.45820313 0.94296875 0 0 Z " fill="#ABAAAA" transform="translate(202,376)"/>
<path d="M0 0 C3.16115776 1.36983503 3.9927092 1.9890638 6 5 C5.01 5.495 5.01 5.495 4 6 C3.01 6.66 2.02 7.32 1 8 C0.01 7.67 -0.98 7.34 -2 7 C-1.67 5.68 -1.34 4.36 -1 3 C-0.34 3 0.32 3 1 3 C0.67 2.01 0.34 1.02 0 0 Z " fill="#CCCCCC" transform="translate(506,336)"/>
<path d="M0 0 C0 0.66 0 1.32 0 2 C-2.01254178 3.4015916 -4.11942295 4.56800474 -6.25 5.78125 C-6.8275 6.1834375 -7.405 6.585625 -8 7 C-8 7.66 -8 8.32 -8 9 C-9.65 8.67 -11.3 8.34 -13 8 C-9.81692689 4.43495812 -5.03655764 0 0 0 Z " fill="#9F9F9F" transform="translate(252,327)"/>
<path d="M0 0 C0.66 0 1.32 0 2 0 C2 1.98 2 3.96 2 6 C3.32 6 4.64 6 6 6 C6 6.66 6 7.32 6 8 C5.34 8 4.68 8 4 8 C4.33 9.32 4.66 10.64 5 12 C1.66442368 9.0094833 -0.15083921 6.06815373 -2 2 C-1.34 1.67 -0.68 1.34 0 1 C0 0.67 0 0.34 0 0 Z " fill="#B5B4B5" transform="translate(234,584)"/>
<path d="M0 0 C-0.93590504 1.1055189 -1.87379858 2.20935453 -2.8125 3.3125 C-3.33457031 3.92738281 -3.85664063 4.54226563 -4.39453125 5.17578125 C-5.87172469 6.85424679 -7.40039131 8.43882034 -9 10 C-9 8.35 -9 6.7 -9 5 C-8.01 5 -7.02 5 -6 5 C-6 3.35 -6 1.7 -6 0 C-3.50907189 -1.24546405 -2.58919267 -0.7767578 0 0 Z " fill="#C5C5C5" transform="translate(509,378)"/>
<path d="M0 0 C1.32 0 2.64 0 4 0 C4 1.65 4 3.3 4 5 C4.66 5 5.32 5 6 5 C6.66 7.31 7.32 9.62 8 12 C4.02502456 8.59287819 2.13206212 4.67239145 0 0 Z " fill="#959494" transform="translate(224,574)"/>
<path d="M0 0 C0.99 0.66 1.98 1.32 3 2 C1.25 7.75 1.25 7.75 -1 10 C-2.1875 8.375 -2.1875 8.375 -3 6 C-1.625 2.75 -1.625 2.75 0 0 Z " fill="#D3D3D4" transform="translate(526,552)"/>
<path d="M0 0 C1.82774447 3.65548893 0.847268 7.18729398 0 11 C-0.99 11 -1.98 11 -3 11 C-2.69217504 9.35328588 -2.37860766 7.70764424 -2.0625 6.0625 C-1.88847656 5.14597656 -1.71445312 4.22945313 -1.53515625 3.28515625 C-1 1 -1 1 0 0 Z " fill="#D5D3D4" transform="translate(374,262)"/>
<path d="M0 0 C0.93423645 3.01031744 1.04449911 3.86650268 0 7 C-0.06665376 8.39439664 -0.08538199 9.79169875 -0.0625 11.1875 C-0.041875 12.445625 -0.02125 13.70375 0 15 C-0.99 15.33 -1.98 15.66 -3 16 C-2.57910004 10.39538469 -2.08386889 5.27913453 0 0 Z " fill="#8E8C8C" transform="translate(195,391)"/>
<path d="M0 0 C0.33 0.66 0.66 1.32 1 2 C-2.17320782 5.53586014 -4.16743695 7.58578031 -9 8 C-6.14723863 5.06799526 -3.34920216 2.35684596 0 0 Z " fill="#919191" transform="translate(401,232)"/>
<path d="M0 0 C1.98 1.65 3.96 3.3 6 5 C4 6 4 6 1.3984375 5.22265625 C-0.09816406 4.64837891 -0.09816406 4.64837891 -1.625 4.0625 C-2.62789063 3.68222656 -3.63078125 3.30195312 -4.6640625 2.91015625 C-5.43492187 2.60980469 -6.20578125 2.30945313 -7 2 C-3.98968256 1.06576355 -3.13349732 0.95550089 0 2 C0 1.34 0 0.68 0 0 Z " fill="#ACACAC" transform="translate(399,625)"/>
<path d="M0 0 C4 0 4 0 7 1 C4.69 2.65 2.38 4.3 0 6 C-0.66 5.67 -1.32 5.34 -2 5 C-1.34 3.35 -0.68 1.7 0 0 Z " fill="#B1B1B1" transform="translate(410,296)"/>
<path d="M0 0 C1.43836751 0.11458693 2.87570966 0.24209116 4.3125 0.375 C5.51326172 0.47941406 5.51326172 0.47941406 6.73828125 0.5859375 C9 1 9 1 12 3 C9.69 3.33 7.38 3.66 5 4 C5 3.34 5 2.68 5 2 C3.35 1.67 1.7 1.34 0 1 C0 0.67 0 0.34 0 0 Z " fill="#A0A0A0" transform="translate(470,320)"/>
<path d="M0 0 C-1.61992165 0.86375896 -3.24611861 1.71575854 -4.875 2.5625 C-6.23238281 3.27599609 -6.23238281 3.27599609 -7.6171875 4.00390625 C-8.40351563 4.33261719 -9.18984375 4.66132813 -10 5 C-10.66 4.67 -11.32 4.34 -12 4 C-11 2 -11 2 -9.00390625 1.11328125 C-7.79541016 0.71689453 -7.79541016 0.71689453 -6.5625 0.3125 C-5.75941406 0.04050781 -4.95632813 -0.23148437 -4.12890625 -0.51171875 C-2 -1 -2 -1 0 0 Z " fill="#8A8A8A" transform="translate(403,325)"/>
<path d="M0 0 C2.64 0 5.28 0 8 0 C7.01 0.495 7.01 0.495 6 1 C6.33 2.32 6.66 3.64 7 5 C3.34683329 3.75023244 2.21934164 3.32901247 0 0 Z " fill="#BAB8B9" transform="translate(268,628)"/>
<path d="M0 0 C2.00720923 0.28674418 4.0085944 0.61866701 6 1 C2.83759418 3.10827055 1.49342531 3.33817465 -2.1875 3.625 C-3.53908203 3.73714844 -3.53908203 3.73714844 -4.91796875 3.8515625 C-5.94857422 3.92503906 -5.94857422 3.92503906 -7 4 C-7 3.67 -7 3.34 -7 3 C-5.5459375 2.5359375 -5.5459375 2.5359375 -4.0625 2.0625 C-1.15934208 1.30476658 -1.15934208 1.30476658 0 0 Z " fill="#838383" transform="translate(383,310)"/>
<path d="M0 0 C-1.24420647 0.5345256 -2.49570936 1.05208611 -3.75 1.5625 C-4.44609375 1.85253906 -5.1421875 2.14257812 -5.859375 2.44140625 C-8.30012784 3.07831803 -9.6403655 2.80248831 -12 2 C-7.75950782 -0.82699479 -4.85416215 -1.37070821 0 0 Z " fill="#A4A3A7" transform="translate(328,635)"/>
<path d="M0 0 C2.50037734 2.17424117 3.43628586 3.73045798 4 7 C3.34 7 2.68 7 2 7 C2 6.34 2 5.68 2 5 C1.01 5.33 0.02 5.66 -1 6 C-0.67 4.02 -0.34 2.04 0 0 Z " fill="#B6B6B6" transform="translate(490,479)"/>
<path d="M0 0 C2.7972908 2.06756277 3.02692273 3.14440371 3.6875 6.6875 C3.790625 7.780625 3.89375 8.87375 4 10 C0.9083091 7.47043472 0.09068668 4.77545388 -1 1 C-0.67 0.67 -0.34 0.34 0 0 Z " fill="#C5C2C3" transform="translate(244,598)"/>
</svg>
